<?xml version="1.0" encoding="UTF-8"?>
<!DOCTYPE svg PUBLIC "-//W3C//DTD SVG 1.1//EN" "http://www.w3.org/Graphics/SVG/1.1/DTD/svg11.dtd">
<svg xmlns="http://www.w3.org/2000/svg" version="1.1" width="1976px" height="963px" style="shape-rendering:geometricPrecision; text-rendering:geometricPrecision; image-rendering:optimizeQuality; fill-rule:evenodd; clip-rule:evenodd" xmlns:xlink="http://www.w3.org/1999/xlink">
<g><path style="opacity:0.991" fill="#fdfefd" d="M 754.5,-0.5 C 959.167,-0.5 1163.83,-0.5 1368.5,-0.5C 1360.91,35.1089 1353.58,70.7756 1346.5,106.5C 1142.17,106.5 937.833,106.5 733.5,106.5C 739.499,73.34 746.332,40.34 754,7.5C 754.497,4.85397 754.664,2.1873 754.5,-0.5 Z"/></g>
<g><path style="opacity:0.991" fill="#fdfefd" d="M 722.5,157.5 C 926.834,157.333 1131.17,157.5 1335.5,158C 1328.58,192.509 1321.42,227.009 1314,261.5C 1313.17,262.333 1312.33,263.167 1311.5,264C 1107.83,264.5 904.167,264.667 700.5,264.5C 707.32,228.734 714.653,193.067 722.5,157.5 Z"/></g>
<g><path style="opacity:0.984" fill="#fdfefd" d="M -0.5,585.5 C -0.5,573.833 -0.5,562.167 -0.5,550.5C 0.507161,547.678 1.34049,544.678 2,541.5C 2.83333,540.667 3.66667,539.833 4.5,539C 34.8315,538.5 65.1648,538.333 95.5,538.5C 92.2398,551.75 93.7398,564.417 100,576.5C 108.267,585.118 118.434,589.285 130.5,589C 148.689,591.831 165.356,588.164 180.5,578C 195.238,564.972 198.738,549.472 191,531.5C 188.766,529.3 186.266,527.467 183.5,526C 155.312,517.536 126.978,509.536 98.5,502C 36.366,484.226 17.866,445.393 43,385.5C 66.8345,342.468 103.334,317.635 152.5,311C 184.233,306.052 215.899,306.385 247.5,312C 302.662,324.446 322.995,358.279 308.5,413.5C 277.5,413.5 246.5,413.5 215.5,413.5C 221.163,378.663 206.497,363.83 171.5,369C 154.428,372.089 141.928,381.256 134,396.5C 128.899,413.457 134.399,425.29 150.5,432C 174.411,438.978 198.411,445.645 222.5,452C 241.596,457.052 259.263,465.052 275.5,476C 288.567,489.013 294.9,504.846 294.5,523.5C 291.206,577.278 264.872,614.778 215.5,636C 183.943,647.863 151.276,653.363 117.5,652.5C 87.7794,653.191 59.7794,646.691 33.5,633C 15.2738,621.964 3.94048,606.131 -0.5,585.5 Z"/></g>
<g><path style="opacity:0.988" fill="#fdfefd" d="M 689.5,315.5 C 749.852,315.047 810.185,315.547 870.5,317C 888.489,318.33 905.155,323.663 920.5,333C 940.833,349.312 948.999,370.479 945,396.5C 939.698,425.628 923.864,446.795 897.5,460C 886.249,466.638 874.249,471.305 861.5,474C 915.513,486.844 933.346,519.677 915,572.5C 900.925,605.236 876.759,626.736 842.5,637C 830.413,640.617 818.079,642.951 805.5,644C 743.834,644.5 682.168,644.667 620.5,644.5C 643.115,534.756 666.115,425.09 689.5,315.5 Z M 766.5,376.5 C 785.836,376.333 805.17,376.5 824.5,377C 844.904,380.292 853.071,392.126 849,412.5C 842.855,435.679 827.689,447.512 803.5,448C 786.498,448.328 769.498,448.161 752.5,447.5C 757.646,423.917 762.313,400.251 766.5,376.5 Z M 740.5,507.5 C 758.503,507.333 776.503,507.5 794.5,508C 821.88,509.351 832.38,523.184 826,549.5C 820.546,567.819 808.379,578.652 789.5,582C 767.533,583.587 745.533,583.92 723.5,583C 728.877,559.116 733.877,535.116 738.5,511C 738.862,509.566 739.528,508.399 740.5,507.5 Z"/></g>
<g><path style="opacity:0.987" fill="#fdfefd" d="M 1020.5,315.5 C 1087.86,315.031 1155.19,315.531 1222.5,317C 1266.81,323.326 1286.31,348.826 1281,393.5C 1274.25,436.915 1249.75,464.748 1207.5,477C 1199.32,479.435 1190.99,481.102 1182.5,482C 1196.56,481.85 1209.9,484.85 1222.5,491C 1229.72,496.267 1234.89,503.1 1238,511.5C 1240.1,518.168 1241.26,525.001 1241.5,532C 1237.89,569.437 1236.56,606.937 1237.5,644.5C 1203.83,644.5 1170.17,644.5 1136.5,644.5C 1138.5,612.144 1140.83,579.81 1143.5,547.5C 1144.22,539.698 1142.72,532.365 1139,525.5C 1134.59,520.711 1129.09,518.211 1122.5,518C 1105.17,517.5 1087.84,517.333 1070.5,517.5C 1061.5,559.496 1052.5,601.496 1043.5,643.5C 1012.17,644.667 980.839,644.833 949.5,644C 972.852,534.404 996.519,424.904 1020.5,315.5 Z M 1102.5,377.5 C 1121.52,377.239 1140.52,377.739 1159.5,379C 1182,381.842 1190.84,394.342 1186,416.5C 1180.38,442.446 1164.21,455.613 1137.5,456C 1119.5,456.5 1101.5,456.667 1083.5,456.5C 1088.98,431.241 1094.15,405.908 1099,380.5C 1100.15,379.364 1101.31,378.364 1102.5,377.5 Z"/></g>
<g><path style="opacity:0.986" fill="#fdfefd" d="M 1451.5,315.5 C 1489.55,314.843 1527.39,315.51 1565,317.5C 1584.71,426.399 1604.55,535.232 1624.5,644C 1589.5,644.5 1554.5,644.667 1519.5,644.5C 1516.98,622.814 1514.31,601.147 1511.5,579.5C 1467.83,579.167 1424.16,579.5 1380.5,580.5C 1368.91,601.341 1357.58,622.341 1346.5,643.5C 1315.17,644.667 1283.84,644.833 1252.5,644C 1318.72,534.389 1385.05,424.889 1451.5,315.5 Z M 1488.5,383.5 C 1490.2,385.305 1491.03,387.639 1491,390.5C 1495.14,432.486 1498.81,474.486 1502,516.5C 1500.69,517.573 1499.19,518.24 1497.5,518.5C 1470.86,517.517 1444.19,517.184 1417.5,517.5C 1419.1,512.299 1421.26,507.299 1424,502.5C 1446.03,463.099 1467.53,423.432 1488.5,383.5 Z"/></g>
<g><path style="opacity:0.985" fill="#fdfefd" d="M 390.5,316.5 C 473.167,316.5 555.833,316.5 638.5,316.5C 634.276,337.788 629.61,358.954 624.5,380C 572.596,380.169 520.763,380.669 469,381.5C 464.356,403.22 459.523,424.887 454.5,446.5C 503.495,447.5 552.495,447.833 601.5,447.5C 597.222,468.776 592.555,489.942 587.5,511C 538.501,511.5 489.501,511.667 440.5,511.5C 435.961,534.193 431.295,556.859 426.5,579.5C 479.5,579.5 532.5,579.5 585.5,579.5C 581.807,601.3 577.473,622.967 572.5,644.5C 488.5,644.5 404.5,644.5 320.5,644.5C 343.455,535.057 366.788,425.724 390.5,316.5 Z"/></g>
<g><path style="opacity:0.985" fill="#fdfefd" d="M 1975.5,316.5 C 1975.5,319.5 1975.5,322.5 1975.5,325.5C 1971.85,343.453 1967.85,361.453 1963.5,379.5C 1911.17,380.5 1858.84,380.833 1806.5,380.5C 1802.04,402.809 1797.7,425.142 1793.5,447.5C 1842.5,447.333 1891.5,447.5 1940.5,448C 1935.39,469.048 1930.72,490.215 1926.5,511.5C 1877.17,511.5 1827.83,511.5 1778.5,511.5C 1773.91,534.113 1769.58,556.78 1765.5,579.5C 1818.5,579.167 1871.5,579.5 1924.5,580.5C 1919.83,601.5 1915.17,622.5 1910.5,643.5C 1826.5,644.667 1742.5,644.833 1658.5,644C 1681.45,537.561 1704.29,431.061 1727,324.5C 1727.5,321.854 1727.66,319.187 1727.5,316.5C 1810.17,316.5 1892.83,316.5 1975.5,316.5 Z"/></g>
<g><path style="opacity:0.984" fill="#fdfefd" d="M 611.5,695.5 C 814.5,695.333 1017.5,695.5 1220.5,696C 1221.8,696.804 1222.47,697.971 1222.5,699.5C 1214.81,733.791 1207.31,768.124 1200,802.5C 1199.25,803.126 1198.42,803.626 1197.5,804C 993.834,804.5 790.167,804.667 586.5,804.5C 593.328,771.185 600.161,737.851 607,704.5C 607.986,701.194 609.486,698.194 611.5,695.5 Z"/></g>
<g><path style="opacity:0.981" fill="#fdfefd" d="M 1167.5,962.5 C 962.833,962.5 758.167,962.5 553.5,962.5C 561.219,926.572 568.552,890.572 575.5,854.5C 780.167,854.5 984.833,854.5 1189.5,854.5C 1181.85,890.436 1174.52,926.436 1167.5,962.5 Z"/></g>
</svg>
